<mxfile host="app.diagrams.net" modified="2023-12-04T11:22:37.871Z" agent="Mozilla/5.0 (Windows NT 10.0; Win64; x64) AppleWebKit/537.36 (KHTML, like Gecko) Chrome/119.0.0.0 Safari/537.36" etag="qiKfl0SZJpaOzDvHVofl" version="22.1.5" type="github">
  <diagram name="Page-1" id="xq79SUk1x-63ovbwencG">
    <mxGraphModel dx="880" dy="434" grid="1" gridSize="10" guides="1" tooltips="1" connect="1" arrows="1" fold="1" page="1" pageScale="1" pageWidth="827" pageHeight="1169" math="0" shadow="0">
      <root>
        <mxCell id="0" />
        <mxCell id="1" parent="0" />
        <mxCell id="ArJefbUZaH6O0o4Y3IaT-1" value="Répondeur SAML" style="rounded=1;whiteSpace=wrap;html=1;" vertex="1" parent="1">
          <mxGeometry x="600" y="100" width="120" height="60" as="geometry" />
        </mxCell>
        <mxCell id="ArJefbUZaH6O0o4Y3IaT-2" value="Demandeur SAML" style="rounded=1;whiteSpace=wrap;html=1;" vertex="1" parent="1">
          <mxGeometry x="350" y="100" width="120" height="60" as="geometry" />
        </mxCell>
        <mxCell id="ArJefbUZaH6O0o4Y3IaT-3" value="Agent utilisateur&amp;nbsp;" style="rounded=1;whiteSpace=wrap;html=1;" vertex="1" parent="1">
          <mxGeometry x="100" y="100" width="120" height="60" as="geometry" />
        </mxCell>
        <mxCell id="ArJefbUZaH6O0o4Y3IaT-4" value="" style="endArrow=classic;html=1;rounded=0;exitX=0.5;exitY=1;exitDx=0;exitDy=0;" edge="1" parent="1">
          <mxGeometry width="50" height="50" relative="1" as="geometry">
            <mxPoint x="159.5" y="160" as="sourcePoint" />
            <mxPoint x="160" y="580" as="targetPoint" />
            <Array as="points" />
          </mxGeometry>
        </mxCell>
        <mxCell id="ArJefbUZaH6O0o4Y3IaT-5" value="1. L&#39;agent utilisateur accède à une ressource du requérant SAML à l&#39;aide d&#39;une requête HTTP." style="text;whiteSpace=wrap;fontSize=10;" vertex="1" parent="1">
          <mxGeometry x="190" y="180" width="140" height="30" as="geometry" />
        </mxCell>
        <mxCell id="ArJefbUZaH6O0o4Y3IaT-6" value="" style="endArrow=classic;html=1;rounded=0;exitX=0.5;exitY=1;exitDx=0;exitDy=0;" edge="1" parent="1">
          <mxGeometry width="50" height="50" relative="1" as="geometry">
            <mxPoint x="659.5" y="160" as="sourcePoint" />
            <mxPoint x="660" y="580" as="targetPoint" />
          </mxGeometry>
        </mxCell>
        <mxCell id="ArJefbUZaH6O0o4Y3IaT-7" value="" style="endArrow=classic;html=1;rounded=0;exitX=0.5;exitY=1;exitDx=0;exitDy=0;" edge="1" parent="1" source="ArJefbUZaH6O0o4Y3IaT-2">
          <mxGeometry width="50" height="50" relative="1" as="geometry">
            <mxPoint x="414" y="170" as="sourcePoint" />
            <mxPoint x="410" y="580" as="targetPoint" />
          </mxGeometry>
        </mxCell>
        <mxCell id="ArJefbUZaH6O0o4Y3IaT-8" value="" style="endArrow=classic;html=1;rounded=0;" edge="1" parent="1">
          <mxGeometry width="50" height="50" relative="1" as="geometry">
            <mxPoint x="160" y="240" as="sourcePoint" />
            <mxPoint x="410" y="240" as="targetPoint" />
          </mxGeometry>
        </mxCell>
        <mxCell id="ArJefbUZaH6O0o4Y3IaT-9" value="" style="endArrow=classic;html=1;rounded=0;" edge="1" parent="1">
          <mxGeometry width="50" height="50" relative="1" as="geometry">
            <mxPoint x="420" y="305" as="sourcePoint" />
            <mxPoint x="660" y="330" as="targetPoint" />
            <Array as="points">
              <mxPoint x="140" y="305" />
              <mxPoint x="140" y="330" />
            </Array>
          </mxGeometry>
        </mxCell>
        <mxCell id="ArJefbUZaH6O0o4Y3IaT-10" value="2. Demande SAML renvoyée dans l&#39;URL de redirection HTTP vers le répondeur SAML, codée dans l&#39;en-tête Location." style="text;whiteSpace=wrap;fontSize=10;" vertex="1" parent="1">
          <mxGeometry x="190" y="248" width="160" height="50" as="geometry" />
        </mxCell>
        <mxCell id="ArJefbUZaH6O0o4Y3IaT-11" value="" style="endArrow=classic;html=1;rounded=0;" edge="1" parent="1">
          <mxGeometry width="50" height="50" relative="1" as="geometry">
            <mxPoint x="660" y="404" as="sourcePoint" />
            <mxPoint x="160" y="404" as="targetPoint" />
          </mxGeometry>
        </mxCell>
        <mxCell id="ArJefbUZaH6O0o4Y3IaT-12" value="3. Le répondeur SAML interagit avec l&#39;agent utilisateur, sous réserve des contraintes de la demande SAML." style="text;whiteSpace=wrap;fontSize=10;" vertex="1" parent="1">
          <mxGeometry x="190" y="346" width="160" height="50" as="geometry" />
        </mxCell>
        <mxCell id="ArJefbUZaH6O0o4Y3IaT-13" value="" style="endArrow=classic;html=1;rounded=0;" edge="1" parent="1">
          <mxGeometry width="50" height="50" relative="1" as="geometry">
            <mxPoint x="660" y="460" as="sourcePoint" />
            <mxPoint x="410" y="490" as="targetPoint" />
            <Array as="points">
              <mxPoint x="140" y="460" />
              <mxPoint x="140" y="490" />
            </Array>
          </mxGeometry>
        </mxCell>
        <mxCell id="ArJefbUZaH6O0o4Y3IaT-14" value="4. Réponse SAML renvoyée dans l&#39;URL de redirection HTTP au demandeur SAML, encodée dans l&#39;en-tête Location." style="text;whiteSpace=wrap;fontSize=10;" vertex="1" parent="1">
          <mxGeometry x="190" y="417" width="211" height="3" as="geometry" />
        </mxCell>
        <mxCell id="ArJefbUZaH6O0o4Y3IaT-15" value="" style="endArrow=classic;html=1;rounded=0;" edge="1" parent="1">
          <mxGeometry width="50" height="50" relative="1" as="geometry">
            <mxPoint x="660" y="550" as="sourcePoint" />
            <mxPoint x="160" y="550" as="targetPoint" />
          </mxGeometry>
        </mxCell>
        <mxCell id="ArJefbUZaH6O0o4Y3IaT-16" value="5. Réponse http envoyée à l&#39;agent oser par le demandeur SAML à l&#39;issue de l&#39;échange DAML" style="text;whiteSpace=wrap;fontSize=10;" vertex="1" parent="1">
          <mxGeometry x="190" y="506" width="190" height="40" as="geometry" />
        </mxCell>
        <mxCell id="ArJefbUZaH6O0o4Y3IaT-17" value="Je dois initier un échange de protocole SAML" style="ellipse;whiteSpace=wrap;html=1;fontSize=10;" vertex="1" parent="1">
          <mxGeometry x="480" y="160" width="100" height="60" as="geometry" />
        </mxCell>
        <mxCell id="ArJefbUZaH6O0o4Y3IaT-18" value="" style="endArrow=classic;html=1;rounded=0;dashed=1;" edge="1" parent="1">
          <mxGeometry width="50" height="50" relative="1" as="geometry">
            <mxPoint x="480" y="198" as="sourcePoint" />
            <mxPoint x="430" y="230" as="targetPoint" />
            <Array as="points" />
          </mxGeometry>
        </mxCell>
      </root>
    </mxGraphModel>
  </diagram>
</mxfile>
